<svg xmlns="http://www.w3.org/2000/svg" width="300" height="184.714" viewBox="0 0 300 184.714">
  <path id="Converse_logo" d="M314.878,162.686h.94c.481,0,1,.093,1,.7,0,.723-.574.755-1.2.755h-.743Zm-.708,3.99h.708v-1.967h.752l1.243,1.967h.762l-1.306-2.018a1.171,1.171,0,0,0,1.2-1.241c0-.879-.509-1.3-1.6-1.3h-1.764v4.564Zm-1.7-2.3a3.22,3.22,0,1,1,3.224,3.355A3.217,3.217,0,0,1,312.467,164.376Zm-.711,0a3.927,3.927,0,1,0,3.935-3.884A3.907,3.907,0,0,0,311.756,164.376Zm-43.741-5.806V165.1H251.666v7.374H262.9a6.909,6.909,0,0,1,6.911,6.911v6.063a6.909,6.909,0,0,1-6.911,6.911H243.9V185.83h18.765V179H251.436a6.91,6.91,0,0,1-6.911-6.911v-6.6a6.913,6.913,0,0,1,6.911-6.911h16.579Zm37.471,33.787H288.907A6.91,6.91,0,0,1,282,185.446V165.481a6.913,6.913,0,0,1,6.911-6.911h16.579V165.1H289.137v7.526h16.349v6.527H289.137v6.68h16.349Zm-111.955,0H176.952a6.91,6.91,0,0,1-6.91-6.911V165.481a6.914,6.914,0,0,1,6.91-6.911h16.579V165.1H177.184v7.526h16.347v6.527H177.184v6.68h16.347ZM98.161,158.57H113.9a6.913,6.913,0,0,1,6.911,6.911v26.876h-7.141V165.1h-11.9v27.26H94.63V158.57Zm115.334,14.054h12.663V165.1H213.495Zm19.8-6.217v5.833a6.909,6.909,0,0,1-6.073,6.86l6.7,13.257h-8.038l-5.84-13.206H213.5v13.206h-7.14V158.57H226.39a6.913,6.913,0,0,1,6.91,6.911v.926ZM137.17,158.57l7.985,28.107L153.6,158.57h8.139l-10.9,33.787H139.627L129.184,158.57ZM19.609,165.481a6.914,6.914,0,0,1,6.91-6.911H44.257V165.1H26.751V185.83H44.258v6.526H26.52a6.91,6.91,0,0,1-6.91-6.911V165.481Zm35.552,0a6.914,6.914,0,0,1,6.911-6.911H76.814a6.914,6.914,0,0,1,6.912,6.911v19.965a6.91,6.91,0,0,1-6.912,6.911H62.072a6.91,6.91,0,0,1-6.911-6.911ZM62.3,165.1H76.586v20.733H62.3ZM164.849,32.6l9.183,28.265h29.719L179.708,78.328l9.184,28.27-24.043-17.47L140.806,106.6l9.183-28.27L125.947,60.863h29.718Zm55.4,39.929a55.4,55.4,0,1,1-55.4-55.4A55.4,55.4,0,0,1,220.25,72.527Zm-55.4-64.884a64.882,64.882,0,1,0,64.882,64.885A64.882,64.882,0,0,0,164.849,7.643Z" transform="translate(-19.609 -7.643)" fill-rule="evenodd"/>
</svg>
